<svg version="1.1" id="Ebene_1" xmlns="http://www.w3.org/2000/svg" xmlns:xlink="http://www.w3.org/1999/xlink" x="0px" y="0px"
	 viewBox="0 0 18.9 26.1" style="enable-background:new 0 0 18.9 26.1;" xml:space="preserve">
<style type="text/css">
	.st0{fill:#D36767;stroke:#000000;stroke-miterlimit:10;}
	.st1{fill:#D36767;}
	.st2{fill:#FF6666;}
	.st3{fill:#E95D5D;}
	.st4{fill:#0099FF;}
	.st5{fill:#E9E9E9;}
	.st6{fill:#F1CCCC;}
	.st7{stroke:#000000;stroke-miterlimit:10;}
	.st8{fill:#BCBCBC;stroke:#BCBCBC;stroke-miterlimit:10;}
	.st9{fill:#BCBCBC;}
	.st10{fill:#FF0000;stroke:#FF0000;stroke-miterlimit:10;}
</style>
<g>
	<path d="M17.6,2.7L18,3.3c-1.7,1.3-3.5,3.2-5.6,5.8s-3.6,5.1-4.7,7.3L6.9,17c-0.7,0.5-1.2,0.9-1.5,1.1c-0.1-0.4-0.3-1-0.7-1.8
		l-0.3-0.8c-0.5-1.1-0.9-1.9-1.3-2.4s-0.9-0.9-1.4-1c0.8-0.9,1.6-1.3,2.3-1.3c0.6,0,1.3,0.8,2,2.4L6.4,14c1.3-2.2,3-4.4,5.1-6.5
		S15.6,3.8,17.6,2.7z"/>
</g>
</svg>
